<?xml version="1.0" standalone="no"?>
<!DOCTYPE svg PUBLIC "-//W3C//DTD SVG 20010904//EN"
 "http://www.w3.org/TR/2001/REC-SVG-20010904/DTD/svg10.dtd">
<svg version="1.0" xmlns="http://www.w3.org/2000/svg"
 width="795.000000pt" height="795.000000pt" viewBox="0 0 795.000000 795.000000"
 preserveAspectRatio="xMidYMid meet">
<metadata>
Created by potrace 1.11, written by Peter Selinger 2001-2013
</metadata>
<g transform="translate(0.000000,795.000000) scale(0.100000,-0.100000)"
fill="#000000" stroke="none">
<path d="M2395 7860 l-40 -5 0 -1417 0 -1418 29 0 c17 0 100 18 185 41 86 22
165 43 175 45 10 2 33 8 50 13 26 8 272 72 334 86 37 9 376 96 547 140 227 59
224 58 259 57 16 -1 68 -10 115 -21 108 -26 335 -76 451 -101 30 -6 64 -13 75
-16 11 -2 31 -6 45 -9 14 -4 36 -8 49 -11 20 -4 93 -20 179 -40 22 -5 23 -2
22 48 -1 29 -1 79 -1 111 l1 57 90 0 90 0 0 -140 0 -139 38 -10 c109 -29 458
-101 468 -97 9 4 13 242 14 1033 2 949 2 1695 1 1768 l-1 30 -1568 0 c-862 0
-1585 -2 -1607 -5z"/>
<path d="M3908 5220 c-92 -49 -121 -177 -60 -264 35 -50 84 -76 145 -76 161 0
238 200 120 312 -54 51 -138 63 -205 28z"/>
<path d="M2975 4748 c-3 -7 -6 -166 -7 -353 l-3 -340 -290 -5 -290 -5 0 -99
c0 -58 4 -100 10 -102 14 -6 3145 -12 3165 -7 13 4 15 22 14 106 -1 56 -2 105
-3 108 0 4 -490 7 -1088 8 -599 0 -1103 0 -1120 1 l-33 0 0 350 0 350 -175 0
c-131 0 -177 -3 -180 -12z"/>
<path d="M3787 4753 c-10 -9 -9 -613 1 -614 25 -4 179 -5 190 -1 9 3 12 75 12
313 l0 309 -98 0 c-54 0 -102 -3 -105 -7z"/>
<path d="M4076 4743 c-3 -10 -5 -148 -4 -306 1 -334 -11 -305 118 -301 41 1
80 2 85 3 6 1 10 111 10 311 l0 310 -102 0 c-88 0 -102 -2 -107 -17z"/>
<path d="M4369 4758 c-1 -2 -2 -141 -3 -310 -1 -302 -1 -308 19 -309 61 -4
143 -4 163 -1 l22 4 0 309 0 309 -100 0 c-55 0 -101 -1 -101 -2z"/>
<path d="M4650 4450 l0 -310 23 -1 c65 -4 164 -4 175 -1 9 3 12 75 12 313 l0
309 -105 0 -105 0 0 -310z"/>
<path d="M4945 4450 c0 -200 3 -310 10 -311 43 -5 177 -4 187 2 8 5 11 89 10
290 0 156 -1 294 -1 307 -1 21 -4 22 -104 22 l-102 0 0 -310z"/>
<path d="M5231 4451 l0 -309 22 -4 c31 -6 177 -1 184 6 5 4 7 364 4 559 l-1
57 -105 0 -104 0 0 -309z"/>
<path d="M3505 3792 c-106 -28 -142 -49 -213 -122 -91 -94 -128 -244 -95 -380
47 -190 204 -309 414 -311 43 0 82 2 87 5 5 3 23 8 41 11 49 8 127 51 175 95
84 78 127 192 123 325 -8 218 -177 379 -407 388 -42 2 -97 -3 -125 -11z m219
-136 c63 -26 105 -66 136 -130 71 -147 18 -327 -115 -390 -39 -19 -134 -37
-162 -32 -107 21 -174 65 -218 146 -56 102 -36 260 43 343 74 78 214 106 316
63z"/>
<path d="M2435 3778 c-3 -7 -4 -186 -3 -398 l3 -385 68 -1 c37 -1 68 2 68 5 1
3 3 80 4 171 1 91 3 168 4 171 0 3 84 6 186 6 l185 0 2 -176 3 -175 55 -3 c30
-1 62 2 70 7 13 8 15 59 15 361 0 194 -1 369 -3 389 l-4 38 -66 -2 -67 -1 -3
-156 -2 -157 -187 2 -187 1 -2 145 c-1 80 -2 150 -3 156 -2 16 -130 18 -136 2z"/>
<path d="M4129 3753 c-4 -215 0 -743 5 -752 4 -7 32 -10 69 -8 l62 2 5 292 5
292 95 -140 c52 -78 104 -147 115 -155 45 -32 58 -20 205 198 36 53 67 95 69
93 1 -2 3 -129 2 -282 -1 -153 3 -284 7 -291 9 -13 109 -14 127 -1 7 5 10 140
9 391 -1 211 -2 386 -3 391 -1 4 -36 7 -79 7 -62 0 -80 -3 -90 -17 -7 -10 -58
-84 -113 -165 l-101 -148 -27 38 c-14 20 -62 91 -106 157 -44 66 -84 123 -90
127 -5 4 -45 8 -87 8 l-78 0 -1 -37z"/>
<path d="M5027 3783 c-3 -5 -5 -182 -5 -395 l0 -386 21 -5 c12 -3 134 -5 272
-4 l250 2 0 61 1 62 -194 0 c-107 1 -196 3 -199 5 -7 8 -6 208 2 215 3 4 77 7
163 8 86 1 161 2 165 3 4 0 7 27 5 59 l-3 57 -167 3 c-166 2 -168 3 -169 25
-2 56 1 160 5 164 2 3 82 5 177 5 95 0 178 2 185 5 16 6 17 105 1 115 -15 10
-504 11 -510 1z"/>
<path d="M2440 2940 c-7 -4 -9 -139 -8 -401 l3 -394 175 0 c236 -1 296 12 368
78 89 82 87 233 -3 321 -41 39 -44 45 -29 57 43 36 57 138 29 207 -28 66 -90
113 -166 128 -46 8 -356 12 -369 4z m348 -131 c37 -13 67 -68 57 -106 -11 -45
-52 -73 -109 -74 -121 -2 -145 -1 -153 4 -6 4 -10 171 -4 185 3 7 183 0 209
-9z m37 -316 c42 -13 74 -63 70 -110 -4 -56 -12 -69 -58 -91 -35 -17 -61 -20
-152 -19 l-110 2 -3 95 c-4 145 -12 136 115 134 59 -1 122 -6 138 -11z"/>
<path d="M3141 2936 c-15 -18 -13 -772 2 -783 7 -5 120 -9 252 -9 l240 1 3 63
c2 45 -1 62 -10 63 -7 1 -83 3 -168 4 -85 1 -160 3 -166 4 -8 1 -11 97 -11
326 0 179 -3 328 -6 331 -12 12 -126 12 -136 0z"/>
<path d="M3734 2938 c-8 -12 -8 -773 -1 -785 6 -10 123 -11 133 -1 8 9 8 777
0 785 -10 11 -126 11 -132 1z"/>
<path d="M4002 2942 c-9 -3 -12 -104 -12 -398 0 -368 1 -394 18 -395 9 -1 32
-2 51 -4 77 -5 72 -27 69 297 l-3 289 20 -24 c11 -13 114 -144 228 -290 115
-147 214 -268 220 -268 44 -5 119 -4 128 2 12 7 16 775 5 787 -4 3 -34 7 -66
7 -46 1 -61 -3 -65 -15 -2 -8 -4 -125 -4 -260 0 -135 0 -260 -1 -279 l0 -33
-45 58 c-83 108 -230 296 -245 314 -8 10 -48 61 -89 114 -40 53 -79 97 -85 97
-36 4 -114 5 -124 1z"/>
<path d="M4862 2942 c-18 -6 -17 -788 1 -794 27 -10 346 0 401 11 175 38 284
141 310 295 42 240 -71 425 -291 477 -45 11 -395 20 -421 11z m429 -149 c65
-29 94 -58 120 -117 31 -71 31 -203 2 -261 -56 -108 -134 -142 -323 -141 l-95
1 -1 265 c0 146 1 268 3 272 2 4 59 6 126 4 96 -3 133 -8 168 -23z"/>
<path d="M2412 1248 l0 -871 32 -29 c52 -48 163 -94 341 -143 50 -13 108 -27
130 -30 22 -4 76 -12 120 -20 44 -8 107 -16 140 -20 33 -3 76 -8 95 -11 174
-25 826 -45 1005 -30 28 3 109 8 180 11 72 4 145 8 163 10 107 10 170 17 192
20 14 2 52 6 85 10 33 3 78 8 100 11 22 3 110 22 195 43 151 38 263 81 346
133 l41 26 -3 869 c-1 477 -2 874 -3 881 -1 9 -324 12 -1580 12 l-1579 0 0
-872z"/>
</g>
</svg>
